<?xml version="1.0" encoding="utf-8"?>
<!-- Generator: Adobe Illustrator 27.5.0, SVG Export Plug-In . SVG Version: 6.00 Build 0)  -->
<svg version="1.1" xmlns="http://www.w3.org/2000/svg" xmlns:xlink="http://www.w3.org/1999/xlink" x="0px" y="0px"
	 viewBox="0 0 363.325 400" style="enable-background:new 0 0 363.325 400;" xml:space="preserve">
<g id="Layer_1">
</g>
<g id="Layer_2">
	<g>
		<g>
			<g>
				<path style="fill:#FFCB05;" d="M131.333,238.82c0,0,46.205-33.807,100.659,0v37.92h-99.428L131.333,238.82z"/>
				<path style="fill:#FFCB05;" d="M131.333,238.82c0,0,46.205-33.807,100.659,0v37.92h-99.428L131.333,238.82z"/>
			</g>
			<g>
				<path style="fill:#FED09E;" d="M138.987,216.55c0,0,1.65,22.554,0,41.258c-0.146,1.649,1.232,4.232,1.783,5.719
					c1.669,4.505,3.825,8.847,6.481,12.853c7.953,11.995,19.765,18.901,34.152,19.61c0.349,0.017,0.699,0.034,1.048,0.052
					c-0.776,0-1.551,0-2.327,0c14.818,0.021,27.434-7.764,35.418-19.992c2.58-3.951,4.68-8.219,6.309-12.645
					c0.536-1.457,1.88-3.982,1.738-5.596c-1.65-18.704,0-41.258,0-41.258H138.987z"/>
				<path style="opacity:0.4;fill:#FED09E;" d="M138.987,216.55c0,0,1.65,22.554,0,41.258c-0.146,1.649,1.232,4.232,1.783,5.719
					c1.669,4.505,3.825,8.847,6.481,12.853c7.953,11.995,19.765,18.901,34.152,19.61c0.349,0.017,0.699,0.034,1.048,0.052
					c-0.776,0-1.551,0-2.327,0c14.818,0.021,27.434-7.764,35.418-19.992c2.58-3.951,4.68-8.219,6.309-12.645
					c0.536-1.457,1.88-3.982,1.738-5.596c-1.65-18.704,0-41.258,0-41.258H138.987z"/>
				<path style="opacity:0.6;fill:#FED09E;" d="M138.987,216.549c0,0,0.207,2.828,0.401,7.308
					c3.404,4.445,7.316,8.455,11.425,12.276c8.96,8.332,19.373,17.077,31.58,17.173c12.207-0.096,22.62-8.841,31.58-17.173
					c3.202-2.977,6.287-6.066,9.103-9.388c0.216-6.121,0.514-10.197,0.514-10.197H138.987z"/>
			</g>
			<path style="fill:#86ADDA;" d="M181.728,390c119.872,0,172.509-74.266,172.509-74.266c0.876-18.23-122.245-48.73-122.245-48.73
				V238.82c-11.998,15.897-47.005,22.796-47.005,22.796l-3.299,26.396h-0.051l-3.299-26.396c0,0-35.006-6.899-47.005-22.796v28.184
				c0,0-123.122,30.5-122.245,48.73c0,0,52.637,74.266,172.509,74.266"/>
			<path style="opacity:0.4;fill:#86ADDA;" d="M231.992,267.004V238.82c-11.998,15.897-47.005,22.796-47.005,22.796l-2.557,20.46
				v107.921c119.374-0.29,171.807-74.263,171.807-74.263C355.114,297.504,231.992,267.004,231.992,267.004z"/>
			<g>
				<path style="fill:#262262;" d="M81.881,330.192c9.316-27.328,3.671-41.944-1.609-48.931
					C46.538,291.635,8.6,305.586,9.088,315.734c0,0,32.406,45.716,104.263,65.411C110.361,317.988,81.881,330.192,81.881,330.192z"
					/>
				<path style="fill:#262262;" d="M91.997,317.666c0,0,30.217-0.687,31.036,65.916c4.405,1.01,8.948,1.92,13.626,2.716
					c0.063-22.332-3.504-75.237-38.961-72.102c0,0,14.058-14.744-3.594-37.07c-1.18,0.343-2.375,0.693-3.581,1.049
					C95.115,283.703,104.165,298.351,91.997,317.666z"/>
			</g>
			<g>
				<path style="fill:#262262;" d="M281.445,330.192c-9.316-27.328-3.671-41.944,1.609-48.931
					c33.733,10.375,71.671,24.325,71.184,34.473c0,0-32.406,45.716-104.263,65.411C252.964,317.988,281.445,330.192,281.445,330.192
					z"/>
				<path style="fill:#262262;" d="M271.328,317.666c0,0-30.217-0.687-31.036,65.916c-4.405,1.01-8.947,1.92-13.626,2.716
					c-0.064-22.332,3.504-75.237,38.961-72.102c0,0-14.058-14.744,3.594-37.07c1.18,0.343,2.375,0.693,3.581,1.049
					C268.211,283.703,259.16,298.351,271.328,317.666z"/>
			</g>
			<path style="fill:#FFCB05;" d="M184.988,261.616l-3.299,26.396h-0.051l-3.299-26.396c0,0-35.006-6.899-47.004-22.796v12.017
				c5.521,5.145,18.737,15.334,39.904,18.984c0,0,2.979,28.794,8.936,33.759h3.524c5.957-4.965,8.936-33.759,8.936-33.759
				c20.496-3.534,33.539-13.201,39.359-18.482V238.82C219.994,254.717,184.988,261.616,184.988,261.616z"/>
		</g>
		<g>
			<g>
				<path style="fill:#FED09E;" d="M94.925,147.653c0.554,5.124,2.251,10.08,4.649,14.626c2.214,4.196,5.053,8.18,8.469,11.485
					c2.494,2.413,6.111,5.319,9.847,4.461c2.058-0.472,3.505-2.135,4.531-3.882c1.281-2.181,2.083-4.608,2.467-7.103
					c0.766-4.985,0.03-10.087-0.944-14.989c-0.945-4.752-2.342-9.695-5.538-13.46c-0.023-0.027-0.052-0.044-0.08-0.064
					c-0.552-0.971-1.196-1.892-1.942-2.739c-2.719-3.084-6.587-4.697-10.686-4.616c-3.58,0.07-6.906,1.661-8.847,4.73
					C94.69,139.519,94.502,143.744,94.925,147.653z"/>
				<path style="opacity:0.35;fill:#FED09E;" d="M123.943,152.251c-0.945-4.752-2.342-9.695-5.537-13.46
					c-0.023-0.027-0.052-0.044-0.08-0.064c-0.552-0.971-1.196-1.892-1.942-2.739c-1.377-1.562-3.049-2.744-4.896-3.523
					c-0.147,3.851-0.175,7.706-0.064,11.558c0.246,8.58,1.167,17.134,2.744,25.571c0.549,2.936,1.181,5.855,1.879,8.759
					c0.609,0.045,1.224,0.015,1.844-0.127c2.058-0.472,3.505-2.135,4.531-3.882c1.281-2.181,2.083-4.608,2.467-7.103
					C125.654,162.255,124.918,157.153,123.943,152.251z"/>
				<path style="fill:#726658;" d="M97.783,142.786c2.792-4.028,8.531-0.051,11.028,2.306c4.098,3.87,6.486,9.322,7.536,14.781
					c0.628,3.267,0.79,6.613,0.589,9.93c-0.015,0.254-0.407,0.116-0.407-0.087c-0.001-1.89-0.085-3.781-0.279-5.658
					c-0.617,0.37-1.618,0.307-2.212,0.163c-1.052-0.255-2.029-0.84-2.88-1.494c-1.633-1.254-3.09-2.841-4.274-4.525
					c-0.104-0.147,0.132-0.167,0.211-0.061c1.133,1.515,2.528,2.897,4.052,4.016c0.787,0.578,1.638,1.14,2.585,1.412
					c0.394,0.113,0.809,0.178,1.219,0.131c0.456-0.052,0.764-0.313,1.182-0.444c0.008-0.003,0.018-0.001,0.026-0.003
					c-0.394-3.247-1.137-6.441-2.401-9.487c-1.818-4.381-4.845-8.636-9.124-10.892c-2.068-1.091-4.623-1.695-6.415,0.219
					C98.046,143.278,97.631,143.005,97.783,142.786z"/>
			</g>
			<g>
				<path style="fill:#FED09E;" d="M272.379,147.653c-0.554,5.124-2.251,10.08-4.649,14.626c-2.214,4.196-5.054,8.18-8.47,11.485
					c-2.494,2.413-6.111,5.319-9.847,4.461c-2.058-0.472-3.505-2.135-4.531-3.882c-1.281-2.181-2.083-4.608-2.467-7.103
					c-0.766-4.985-0.03-10.087,0.944-14.989c0.945-4.752,2.342-9.695,5.537-13.46c0.023-0.027,0.052-0.044,0.08-0.064
					c0.552-0.971,1.195-1.892,1.942-2.739c2.719-3.084,6.588-4.697,10.686-4.616c3.58,0.07,6.906,1.661,8.847,4.73
					C272.613,139.519,272.802,143.744,272.379,147.653z"/>
				<path style="opacity:0.35;fill:#FED09E;" d="M243.36,152.251c0.945-4.752,2.342-9.695,5.537-13.46
					c0.023-0.027,0.052-0.044,0.08-0.064c0.552-0.971,1.195-1.892,1.942-2.739c1.377-1.562,3.049-2.744,4.896-3.523
					c0.147,3.851,0.175,7.706,0.064,11.558c-0.246,8.58-1.167,17.134-2.744,25.571c-0.549,2.936-1.181,5.855-1.879,8.759
					c-0.609,0.045-1.225,0.015-1.844-0.127c-2.058-0.472-3.505-2.135-4.531-3.882c-1.281-2.181-2.083-4.608-2.467-7.103
					C241.65,162.255,242.386,157.153,243.36,152.251z"/>
				<path style="fill:#726658;" d="M269.521,142.786c-2.792-4.028-8.532-0.051-11.028,2.306c-4.098,3.87-6.486,9.322-7.536,14.781
					c-0.628,3.267-0.79,6.613-0.589,9.93c0.015,0.254,0.406,0.116,0.407-0.087c0.001-1.89,0.085-3.781,0.279-5.658
					c0.617,0.37,1.618,0.307,2.212,0.163c1.052-0.255,2.029-0.84,2.88-1.494c1.633-1.254,3.09-2.841,4.274-4.525
					c0.104-0.147-0.132-0.167-0.211-0.061c-1.133,1.515-2.528,2.897-4.052,4.016c-0.787,0.578-1.638,1.14-2.585,1.412
					c-0.394,0.113-0.809,0.178-1.219,0.131c-0.456-0.052-0.764-0.313-1.182-0.444c-0.008-0.003-0.018-0.001-0.026-0.003
					c0.394-3.247,1.137-6.441,2.401-9.487c1.818-4.381,4.846-8.636,9.124-10.892c2.068-1.091,4.624-1.695,6.415,0.219
					C269.257,143.278,269.673,143.005,269.521,142.786z"/>
			</g>
			<path style="fill:#FED09E;" d="M250.4,109.563c0.32,13.132-1.137,26.797-2.025,39.471c-1.158,16.519-2.234,34.07-7.595,49.865
				c-0.199,0.587-0.406,1.171-0.625,1.751c-4.456,11.789-13.043,20.508-22.548,28.434c-10.048,8.378-21.733,17.178-35.444,17.178
				h0.45c-13.71,0-25.395-8.799-35.444-17.178c-9.505-7.925-18.092-16.645-22.548-28.434c-9.474-25.062-9.78-91.075-9.78-91.075
				s-8.872-61.814,66.747-61.814c32.095,0,62.727,14.052,67.738,48.392C249.964,100.517,250.289,105.008,250.4,109.563z"/>
			<g>
				<path style="fill:#EBA040;" d="M116.343,148.068c0,0-2.445-66.988,19.558-73.1c0,0,12.369,23.293,57.598,23.293
					c45.229,0,37.505-22.071,37.505-22.071s17.358,16.136,17.358,77.256c0,0,34.956-107.502-1.415-114.094
					c0,0-4.546-29.779-44.1-28.415c0,0,14.094,0.909,18.186,10.002c0,0-20.686-18.868-62.286-7.047
					c-28.313,8.045-56.126,34.396-55.112,65.805c0.248,7.688,2.697,14.805,4.394,22.213c1.631,7.119,2.989,14.345,4.3,21.536
					C113.784,131.411,116.048,139.946,116.343,148.068z"/>
				<path style="opacity:0.4;fill:#EBA040;" d="M103.636,79.699c0.248,7.688,2.697,14.805,4.394,22.213
					c1.631,7.119,2.989,14.345,4.3,21.536c1.453,7.963,3.717,16.498,4.013,24.621c0,0-2.445-66.988,19.558-73.1
					c0,0,12.369,23.293,57.598,23.293s37.505-22.071,37.505-22.071s17.358,16.136,17.358,77.256c0,0,9.297-28.592,13.313-57.19
					c-5.388,13.457-13.831,15.188-15.146-3.967c-1.939-28.251-24.373-35.729-24.373-35.729s26.589,15.787-22.988,26.866
					c-49.577,11.079-65.642-28.251-65.642-28.251s-5.539,28.251-20.773,25.481c-10.332-1.879-2.954-23.376,2.864-37.017
					C107.911,54.096,103.208,66.447,103.636,79.699z"/>
			</g>
			<g>
				<path style="fill:#FFFFFF;" d="M132.791,133.84c0,0,16.5-16.5,31.443,3.424C164.234,137.264,146.022,151.896,132.791,133.84z"/>
				<g>
					<circle style="fill:#2F6D8F;" cx="148.636" cy="134.514" r="7.558"/>
					<circle style="fill:#231F20;" cx="148.636" cy="134.514" r="4.334"/>
					<path style="fill:#FFFFFF;" d="M149.819,132.973c0,1.506,1.221,2.726,2.726,2.726c1.506,0,2.727-1.221,2.727-2.726
						c0-1.506-1.221-2.727-2.727-2.727C151.04,130.246,149.819,131.467,149.819,132.973z"/>
				</g>
				<path style="fill:#231F20;" d="M132.63,133.678c6.225-8.019,17.668-10.541,25.843-3.813c2.507,2.018,4.5,4.517,5.943,7.262
					c0.059,0.113,0.016,0.253-0.097,0.312c-0.09,0.048-0.198,0.029-0.268-0.038c-2.206-2.129-4.464-4.103-6.935-5.613
					c-8.038-5.177-16.586-2.677-24.164,2.213C132.756,134.156,132.469,133.88,132.63,133.678L132.63,133.678z"/>
			</g>
			<path style="fill:#EBA040;" d="M126.086,121.666c0,0,7.106-13.389,40.682,1.545l0.254-1.077c0.908-3.854-1.12-7.409-4.866-8.693
				C128.58,101.935,126.086,121.666,126.086,121.666"/>
			<g>
				<path style="fill:#FFFFFF;" d="M229.386,133.84c0,0-16.5-16.5-31.443,3.424C197.943,137.264,216.155,151.896,229.386,133.84z"/>
				<g>
					<circle style="fill:#2F6D8F;" cx="213.541" cy="134.514" r="7.558"/>
					<circle style="fill:#231F20;" cx="213.541" cy="134.514" r="4.334"/>
					<path style="fill:#FFFFFF;" d="M212.358,132.973c0,1.506-1.221,2.726-2.726,2.726c-1.506,0-2.727-1.221-2.727-2.726
						c0-1.506,1.221-2.727,2.727-2.727C211.137,130.246,212.358,131.467,212.358,132.973z"/>
				</g>
				<path style="fill:#231F20;" d="M229.547,133.678c-6.225-8.019-17.667-10.541-25.843-3.813c-2.507,2.018-4.5,4.517-5.943,7.262
					c-0.059,0.113-0.016,0.253,0.097,0.312c0.09,0.048,0.198,0.029,0.268-0.038c2.206-2.129,4.464-4.103,6.935-5.613
					c8.038-5.177,16.586-2.677,24.164,2.213C229.421,134.156,229.708,133.88,229.547,133.678L229.547,133.678z"/>
			</g>
			<path style="fill:#EBA040;" d="M236.091,121.666c0,0-7.106-13.389-40.682,1.545l-0.254-1.077
				c-0.908-3.854,1.12-7.409,4.866-8.693C233.597,101.935,236.091,121.666,236.091,121.666"/>
			<g>
				<path style="fill:#C1736B;" d="M206.75,199.27c0,0-8.596,11.152-24.56,11.152h0.01c-15.964,0-24.56-11.152-24.56-11.152H206.75z
					"/>
				<path style="opacity:0.6;fill:#C1736B;" d="M206.75,199.27c0,0-8.596,11.152-24.56,11.152h0.01
					c-15.964,0-24.56-11.152-24.56-11.152H206.75z"/>
				<path style="fill:#C1736B;" d="M155.487,198.617c0,0,24.27,8.409,54.051,0.15c0,0-4.769-0.075-9.432-1.802
					c-4.663-1.727-11.764-3.754-17.805-1.652c0,0-6.783-2.403-15.473,1.051C158.137,199.818,155.487,198.617,155.487,198.617z"/>
			</g>
			<g>
				<g>
					<g>
						<path style="opacity:0.3;fill:#FED09E;" d="M192.208,174.77l-4.54,2.872c-3.531,3.531-9.255,3.531-12.786,0l-4.364-2.872
							c-1.58-1.58-1.855-4.043-0.663-5.933l11.508-18.247l11.508,18.247C194.064,170.726,193.788,173.19,192.208,174.77z"/>
						<path style="opacity:0.5;fill:#FED09E;" d="M192.872,168.836l-2.141-3.395c-1.888,3.209-5.375,5.364-9.367,5.364
							c-3.992,0-7.479-2.155-9.367-5.364l-2.141,3.395c-1.192,1.89-0.917,4.353,0.663,5.933l4.364,2.872
							c3.531,3.531,9.255,3.531,12.786,0l4.54-2.872C193.788,173.19,194.064,170.726,192.872,168.836z"/>
					</g>
					<g>
						<path style="fill:#726658;" d="M172.808,173.154c2.148-1.311,4.797-0.349,5.521,2.083c0.206,0.693,0.289,1.404,0.26,2.118
							c-0.004,0.127-0.11,0.227-0.237,0.223c-0.093-0.003-0.172-0.061-0.205-0.142c-0.135-0.323-0.239-0.646-0.34-0.965
							c-0.306-0.806-0.757-1.777-1.392-2.322c-0.922-0.793-2.246-0.813-3.42-0.579C172.74,173.649,172.578,173.289,172.808,173.154
							L172.808,173.154z"/>
						<path style="fill:#726658;" d="M189.92,173.154c-2.148-1.311-4.797-0.349-5.521,2.083c-0.206,0.693-0.289,1.404-0.26,2.118
							c0.004,0.127,0.11,0.227,0.237,0.223c0.093-0.003,0.172-0.061,0.205-0.142c0.135-0.323,0.239-0.646,0.34-0.965
							c0.306-0.806,0.757-1.777,1.392-2.322c0.922-0.793,2.246-0.813,3.421-0.579C189.987,173.649,190.149,173.289,189.92,173.154
							L189.92,173.154z"/>
					</g>
				</g>
				<g>
					<path style="fill:#726658;" d="M170.684,167.637c-0.287,0.58-0.654,1.153-0.922,1.73c-0.797,1.776-0.406,3.829,0.8,5.359
						c0.046,0.053-0.032,0.133-0.087,0.087c-1.963-1.522-2.03-4.602-0.48-6.443c0.194-0.267,0.383-0.537,0.585-0.799
						C170.624,167.514,170.719,167.572,170.684,167.637L170.684,167.637z"/>
					<path style="fill:#726658;" d="M192.017,167.572c0.397,0.542,0.801,1.046,1.131,1.643c0.997,1.799,0.624,4.315-1.026,5.598
						c-0.055,0.044-0.132-0.031-0.087-0.087c1.206-1.53,1.598-3.583,0.8-5.359c-0.269-0.578-0.635-1.15-0.922-1.73
						C191.879,167.574,191.974,167.512,192.017,167.572L192.017,167.572z"/>
				</g>
			</g>
			<path style="opacity:0.5;fill:#FED09E;" d="M171.73,210.936c0,0,6.733,4.586,20.395,0
				C192.125,210.936,181.391,225.085,171.73,210.936z"/>
		</g>
	</g>
</g>
</svg>
