<svg width="24" height="24"   xmlns="http://www.w3.org/2000/svg" viewBox="0 0 64 64" id="policy"><g fill="#222" data-name="Policy"><path d="M32 59.37a2 2 0 0 1-.59-.09c-1.77-.55-12.45-6-17.84-13.41C8.35 38.7 8.46 23.61 9 12.88a1 1 0 0 1 .37-.73 1 1 0 0 1 .78-.21c.12 0 12.45 1.72 21.14-7a1 1 0 0 1 1.42 0c8.69 8.74 21 7 21.14 7a1 1 0 0 1 .78.21 1 1 0 0 1 .37.73c.54 10.73.65 25.82-4.57 33-5.43 7.39-16.07 12.85-17.84 13.4a2 2 0 0 1-.59.09ZM11 14c-.48 10.34-.45 24.23 4.23 30.66 5.09 7 15.37 12.23 16.82 12.68 1.45-.45 11.73-5.7 16.82-12.68 4.63-6.4 4.66-20.29 4.18-30.66-3.29.25-13.2.3-21-7-7.9 7.32-17.82 7.28-21.05 7Z" fill="white"></path><path d="M29.53 38.59a1 1 0 0 1-.72-.31l-5.24-5.36a1 1 0 1 1 1.43-1.4l4.5 4.61L39 25.74a1 1 0 1 1 1.48 1.35L30.27 38.26a1.05 1.05 0 0 1-.72.33Z" fill="white"></path></g></svg>