<svg  width="24" height="24" xmlns="http://www.w3.org/2000/svg" data-name="Layer 1" viewBox="0 0 100 100" id="task"><path d="M19.625 94.5h60.75a4.108 4.108 0 0 0 4.105-4.104V9.604A4.108 4.108 0 0 0 80.376 5.5H19.625a4.108 4.108 0 0 0-4.104 4.104v80.792a4.108 4.108 0 0 0 4.104 4.104Zm47.84-86v2.913a1.064 1.064 0 0 1-1.063 1.062H33.598a1.064 1.064 0 0 1-1.063-1.062V8.5ZM18.52 9.604A1.105 1.105 0 0 1 19.625 8.5h9.91v2.913a4.067 4.067 0 0 0 4.063 4.062h32.804a4.067 4.067 0 0 0 4.063-4.062V8.5h9.91a1.105 1.105 0 0 1 1.104 1.104v80.792a1.105 1.105 0 0 1-1.104 1.104h-60.75a1.105 1.105 0 0 1-1.105-1.104Z" fill="white"></path><path d="M57.961 62.795 48.61 74.213l-6.738-5.962a1.5 1.5 0 0 0-1.988 2.248l7.905 6.993a1.5 1.5 0 0 0 .994.377c.04 0 .08-.002.12-.005a1.502 1.502 0 0 0 1.04-.545l10.34-12.622a1.5 1.5 0 1 0-2.322-1.902zM31.657 28.3H57.83a1.5 1.5 0 0 0 0-3H31.657a1.5 1.5 0 0 0 0 3zm0 7.715h36.686a1.5 1.5 0 0 0 0-3H31.657a1.5 1.5 0 0 0 0 3zm0 7.714h36.686a1.5 1.5 0 0 0 0-3H31.657a1.5 1.5 0 0 0 0 3z" fill="white"></path></svg>